<svg width="32" height="32" viewBox="0 0 32 32" fill="none" xmlns="http://www.w3.org/2000/svg">
<path d="M16.16 17.04C16.0538 17.0266 15.9462 17.0266 15.84 17.04C14.7093 17.0019 13.6376 16.5258 12.8514 15.7122C12.0652 14.8987 11.626 13.8114 11.6267 12.68C11.6267 10.2666 13.5733 8.30665 16 8.30665C17.1459 8.30466 18.2467 8.75306 19.0651 9.55518C19.8835 10.3573 20.3539 11.4489 20.3748 12.5946C20.3958 13.7404 19.9658 14.8484 19.1773 15.68C18.3889 16.5116 17.3052 17 16.16 17.04V17.04ZM24.9867 25.84C22.5364 28.0921 19.328 29.3392 16 29.3333C12.5333 29.3333 9.38667 28.0133 7.01333 25.84C7.14667 24.5866 7.94667 23.36 9.37333 22.4C13.0267 19.9733 19 19.9733 22.6267 22.4C24.0533 23.36 24.8533 24.5866 24.9867 25.84V25.84Z" stroke="black" stroke-width="1.5" stroke-linecap="round" stroke-linejoin="round"/>
<path d="M16 29.3334C23.364 29.3334 29.3333 23.364 29.3333 16C29.3333 8.63602 23.364 2.66669 16 2.66669C8.636 2.66669 2.66667 8.63602 2.66667 16C2.66667 23.364 8.636 29.3334 16 29.3334Z" stroke="black" stroke-width="1.5" stroke-linecap="round" stroke-linejoin="round"/>
</svg>
