<svg width="34" height="34" viewBox="0 0 34 34" fill="none" xmlns="http://www.w3.org/2000/svg">
<path d="M2.83337 2.83333H5.29837C6.82837 2.83333 8.03254 4.15083 7.90504 5.66666L6.72921 19.7767C6.6833 20.3233 6.75143 20.8735 6.92929 21.3924C7.10715 21.9114 7.39086 22.3877 7.76244 22.7912C8.13402 23.1948 8.58537 23.5167 9.08789 23.7367C9.59041 23.9567 10.1331 24.0699 10.6817 24.0692H25.7692C27.8092 24.0692 29.5942 22.3975 29.75 20.3717L30.515 9.74666C30.685 7.395 28.9 5.48249 26.5342 5.48249H8.24504M12.75 11.3333H29.75M23.0209 31.1667C23.4905 31.1667 23.9409 30.9801 24.273 30.648C24.6051 30.3159 24.7917 29.8655 24.7917 29.3958C24.7917 28.9262 24.6051 28.4758 24.273 28.1437C23.9409 27.8116 23.4905 27.625 23.0209 27.625C22.5512 27.625 22.1008 27.8116 21.7687 28.1437C21.4366 28.4758 21.25 28.9262 21.25 29.3958C21.25 29.8655 21.4366 30.3159 21.7687 30.648C22.1008 30.9801 22.5512 31.1667 23.0209 31.1667ZM11.6875 31.1667C12.1572 31.1667 12.6076 30.9801 12.9397 30.648C13.2718 30.3159 13.4584 29.8655 13.4584 29.3958C13.4584 28.9262 13.2718 28.4758 12.9397 28.1437C12.6076 27.8116 12.1572 27.625 11.6875 27.625C11.2179 27.625 10.7675 27.8116 10.4354 28.1437C10.1033 28.4758 9.91671 28.9262 9.91671 29.3958C9.91671 29.8655 10.1033 30.3159 10.4354 30.648C10.7675 30.9801 11.2179 31.1667 11.6875 31.1667V31.1667Z" stroke="black" stroke-width="1.5" stroke-miterlimit="10" stroke-linecap="round" stroke-linejoin="round"/>
</svg>
